<svg xmlns:dc="http://purl.org/dc/elements/1.1/" xmlns:cc="http://creativecommons.org/ns#" xmlns:rdf="http://www.w3.org/1999/02/22-rdf-syntax-ns#" xmlns:svg="http://www.w3.org/2000/svg" xmlns="http://www.w3.org/2000/svg" viewBox="0 0 440 440" fill="none"><metadata><rdf:RDF><cc:Work><dc:format>image/svg+xml</dc:format><dc:type rdf:resource="http://purl.org/dc/dcmitype/StillImage"/><dc:title>Face Generator</dc:title><dc:creator><cc:Agent><dc:title>The Visual Team</dc:title></cc:Agent></dc:creator><dc:source>https://www.figma.com/community/file/986078800058673824</dc:source><cc:license rdf:resource="https://creativecommons.org/licenses/by/4.0/"/></cc:Work><cc:License rdf:about="https://creativecommons.org/licenses/by/4.0/"><cc:permits rdf:resource="https://creativecommons.org/ns#Reproduction"/><cc:permits rdf:resource="https://creativecommons.org/ns#Distribution"/><cc:permits rdf:resource="https://creativecommons.org/ns#DerivativeWorks"/><cc:requires rdf:resource="https://creativecommons.org/ns#Notice"/><cc:requires rdf:resource="https://creativecommons.org/ns#Attribution"/></cc:License></rdf:RDF></metadata><mask id="avatarsRadiusMask"><rect width="440" height="440" rx="0" ry="0" x="0" y="0" fill="#fff"/></mask><g mask="url(#avatarsRadiusMask)"><g transform="matrix(.71048 0 0 .71048 24 2)"><path d="M73.006 341.5c-50.917 49.058 19.278 74.67 48.999 109 20.995 29.886 84.5 36.5 127 20 52.021 13.1 48.507 44.341 104.5 16.5 89.99 5.067 76.667-55.388 98.647-67.5 30.853-17 62.849-55.905 30.853-89 0-41.019-1.551-79.4-30.853-106.296-12.962-59.439-23.997-77.151-82.49-77.151-38.996-33.787-66.477-3.64-90.49-24.931-69.59-61.702-118.843 35.426-135.174 65.258-22.482-15.445-61.303 18.179-55.304 61.062-42.995 26.57 2.88 75.167-15.688 93.058Z" fill="rgba(114, 65, 51, 1)"/></g><g transform="translate(81.702 150.74) scale(.71856)"><ellipse cx="190" cy="198.5" rx="132" ry="152.5" fill="rgba(166, 102, 55, 1)"/><path d="M322.034 192.432c-2.649 81.584-60.72 146.784-131.97 146.784-71.248 0-129.32-65.198-131.97-146.781a179.617 179.617 0 0 0-.094 5.824c0 84.283 59.127 152.608 132.064 152.608 72.938 0 132.065-68.325 132.065-152.608 0-1.951-.032-3.893-.095-5.827Z" fill="#000" fill-opacity=".19"/></g><g transform="translate(199.546 333.373) scale(.71856)"><path fill-rule="evenodd" clip-rule="evenodd" d="M20.1 47.474a2.547 2.547 0 0 1 2.47-2.62c3.24-.096 8.057-.67 11.976-2.026 1.966-.68 3.53-1.496 4.56-2.404.985-.867 1.366-1.698 1.366-2.575 0-.877-.381-1.708-1.366-2.575-1.03-.908-2.594-1.725-4.56-2.404-3.92-1.355-8.735-1.93-11.976-2.025a2.547 2.547 0 0 1 .038-5.092c3.235-.048 8.04-.566 11.947-1.9 1.958-.67 3.513-1.485 4.537-2.401.973-.87 1.38-1.739 1.38-2.703 0-.964-.407-1.832-1.38-2.703-1.024-.916-2.579-1.731-4.537-2.4-3.907-1.335-8.712-1.853-11.947-1.9a2.547 2.547 0 1 1 .074-5.093c3.557.052 8.938.608 13.52 2.173 2.286.78 4.552 1.872 6.286 3.425 1.786 1.598 3.077 3.762 3.077 6.498s-1.29 4.9-3.077 6.498c-1.517 1.358-3.441 2.363-5.43 3.117 1.984.756 3.902 1.755 5.416 3.088 1.774 1.564 3.091 3.693 3.091 6.397s-1.317 4.833-3.091 6.397c-1.729 1.522-3.985 2.608-6.264 3.396-4.57 1.58-9.94 2.198-13.49 2.302a2.547 2.547 0 0 1-2.62-2.47Z" fill="#000"/></g><g transform="translate(280.744 235.363) scale(.71856)"><rect x="21" y="21" width="88.115" height="88.115" rx="44.058" fill="rgba(166, 102, 55, 1)"/><path d="M87 43 42.5 84.5" stroke="#000" stroke-opacity=".19" stroke-width="5" stroke-linecap="round" stroke-linejoin="round"/></g><g transform="matrix(-.71856 0 0 .71856 161.463 235.363)"><rect x="21" y="21" width="88.115" height="88.115" rx="44.058" fill="rgba(166, 102, 55, 1)"/><path d="M87 43 42.5 84.5" stroke="#000" stroke-opacity=".19" stroke-width="5" stroke-linecap="round" stroke-linejoin="round"/></g><g transform="translate(114.756 215.513) scale(.71856)"><g fill="#000"><path d="M187 75.933a6.933 6.933 0 1 1 13.866 0V89.8a6.933 6.933 0 1 1-13.866 0V75.933ZM88 75.933a6.933 6.933 0 1 1 13.866 0V89.8A6.933 6.933 0 0 1 88 89.8V75.933Z"/></g></g><g transform="translate(127.69 288.703) scale(.71856)"/><g transform="translate(193.079 279.362) scale(.71856)"><path d="M37.786 22c-7.091 9.462-20.21 28.903-15.955 30.968 4.255 2.064 18.614 2.58 25.262 2.58" stroke="#000" stroke-opacity=".5" stroke-width="4" stroke-linecap="round" stroke-linejoin="round"/></g><g transform="matrix(.52237 0 0 .52237 122.898 244.766)"><path d="M18.067 31.813C17.223 12.236 14.86 2.316 31.957 0c19.632 3.579 14.112 22.55 12 31.813-2.11 9.262 9.574 18.946 7.463 39.365C49.309 91.598 26.386 101.173 15.458 84c-14-22 3.454-32.61 2.61-52.187Z" fill="rgba(114, 65, 51, 1)"/></g><g transform="matrix(-.52237 0 0 .52237 315.651 244.766)"><path d="M18.067 31.813C17.223 12.236 14.86 2.316 31.957 0c19.632 3.579 14.112 22.55 12 31.813-2.11 9.262 9.574 18.946 7.463 39.365C49.309 91.598 26.386 101.173 15.458 84c-14-22 3.454-32.61 2.61-52.187Z" fill="rgba(114, 65, 51, 1)"/></g><g transform="matrix(.52237 0 0 .52237 108.706 145.555)"><g fill="rgba(114, 65, 51, 1)"><path d="M374 131c6.548 15.852 11.5 34.5 11.5 70-11 0-38.5 11-92.5-18-54.844-29.453-68.893-59.5-82-79-13 27-37 51.339-72.5 73.5S54.167 198.5 38 201c0-23.113 2.04-45.999 10.86-67.352a176.028 176.028 0 0 1 38.043-57.099 175.458 175.458 0 0 1 56.936-38.152A175.07 175.07 0 0 1 211 25a175.07 175.07 0 0 1 67.161 13.397 175.455 175.455 0 0 1 56.936 38.152C351.394 92.892 365.18 109.647 374 131Z"/><path d="M302.015 77.004c-11.572-28.621-41.254-46.27-87.036-39.592-30.185 3.68-48.297 24.327-67.414 39.591-19.118 15.265-44.273 49.61-24.149 83.477 20.124 33.868 163.506 72.506 212.809 6.678 26.596-35.509-22.639-61.534-34.21-90.154Z"/></g></g></g></svg>